<svg width="80" height="80" viewBox="0 0 80 80" fill="none" xmlns="http://www.w3.org/2000/svg">
<path d="M45.286 6.66666C46.8575 6.66666 48.3719 7.22161 49.5672 8.22304L50 8.61929L64.714 23.3333C65.8254 24.4446 66.5038 25.9079 66.6408 27.4612L66.6666 28.0474V66.6667C66.6666 70.1813 63.9471 73.0605 60.4975 73.315L60 73.3333H20C16.4854 73.3333 13.6061 70.6138 13.3516 67.1642L13.3333 66.6667V13.3333C13.3333 9.81878 16.0529 6.93944 19.5024 6.68494L20 6.66666H45.286ZM40 13.3333H20V66.6667H60V33.3333H45C42.2386 33.3333 40 31.0948 40 28.3333V13.3333ZM37.643 37.243C38.8445 36.0415 40.7354 35.949 42.043 36.9657L42.357 37.243L49.428 44.314C50.73 45.6157 50.73 47.7263 49.428 49.028C48.2264 50.2298 46.3356 50.3223 45.028 49.3053L44.714 49.028L43.3333 47.6473V56.6667C43.3333 58.5077 41.841 60 40 60C38.2905 60 36.8816 58.7132 36.6891 57.0554L36.6666 56.6667V47.6473L35.286 49.028C33.9843 50.33 31.8736 50.33 30.5719 49.028C29.3703 47.8264 29.2778 45.9356 30.2946 44.628L30.5719 44.314L37.643 37.243ZM46.6666 14.714V26.6667H58.6193L46.6666 14.714Z" fill="#ffc357"/>
</svg>
