<svg xmlns="http://www.w3.org/2000/svg" width="18" height="18" viewBox="0 0 18 18" fill="none">
<path d="M5.03333 0.666656H3.45C1.625 0.666656 0.666668 1.62499 0.666668 3.44166V5.02499C0.666668 6.84166 1.625 7.79999 3.44167 7.79999H5.025C6.84167 7.79999 7.8 6.84166 7.8 5.02499V3.44166C7.80834 1.62499 6.85 0.666656 5.03333 0.666656Z" fill="#ECECFE"/>
<path d="M14.5583 0.666656H12.975C11.1583 0.666656 10.2 1.62499 10.2 3.44166V5.02499C10.2 6.84166 11.1583 7.79999 12.975 7.79999H14.5583C16.375 7.79999 17.3333 6.84166 17.3333 5.02499V3.44166C17.3333 1.62499 16.375 0.666656 14.5583 0.666656Z" fill="#ECECFE"/>
<path d="M14.5583 10.1917H12.975C11.1583 10.1917 10.2 11.15 10.2 12.9667V14.55C10.2 16.3667 11.1583 17.325 12.975 17.325H14.5583C16.375 17.325 17.3333 16.3667 17.3333 14.55V12.9667C17.3333 11.15 16.375 10.1917 14.5583 10.1917Z" fill="#ECECFE"/>
<path d="M5.03333 10.1917H3.45C1.625 10.1917 0.666668 11.15 0.666668 12.9667V14.55C0.666668 16.375 1.625 17.3333 3.44167 17.3333H5.025C6.84167 17.3333 7.8 16.375 7.8 14.5583V12.975C7.80834 11.15 6.85 10.1917 5.03333 10.1917Z" fill="#ECECFE"/>
</svg>