<svg width="80" height="80" viewBox="0 0 80 80" fill="none" xmlns="http://www.w3.org/2000/svg">
<path d="M45.286 6.66666C46.8575 6.66666 48.3719 7.22161 49.5672 8.22304L50 8.61929L64.714 23.3333C65.8254 24.4446 66.5038 25.9079 66.6408 27.4612L66.6666 28.0474V66.6667C66.6666 70.1813 63.9471 73.0605 60.4975 73.315L60 73.3333H20C16.4854 73.3333 13.6061 70.6138 13.3516 67.1642L13.3333 66.6667V13.3333C13.3333 9.81878 16.0529 6.93944 19.5024 6.68494L20 6.66666H45.286ZM40 13.3333H20V66.6667H60V33.3333H45C42.2386 33.3333 40 31.0948 40 28.3333V13.3333ZM46.6666 14.714V26.6667H58.6193L46.6666 14.714Z" fill="#ffc357"/>
<rect x="35" y="48" width="20" height="4" rx="2" fill="#ffc357"/>
<path fill-rule="evenodd" clip-rule="evenodd" d="M26.3316 59.0674C25.8895 59.5095 25.8895 60.2264 26.3316 60.6685C26.7737 61.1106 27.4905 61.1106 27.9326 60.6685L29 59.6011L30.0674 60.6685C30.5095 61.1106 31.2263 61.1106 31.6684 60.6685C32.1105 60.2264 32.1105 59.5096 31.6684 59.0674L30.601 58.0001L31.6684 56.9327C32.1105 56.4906 32.1105 55.7738 31.6684 55.3316C31.2263 54.8895 30.5095 54.8895 30.0674 55.3316L29 56.399L27.9326 55.3317C27.4905 54.8896 26.7737 54.8896 26.3316 55.3317C25.8895 55.7738 25.8895 56.4906 26.3316 56.9327L27.3989 58.0001L26.3316 59.0674Z" fill="#ffc357"/>
<path fill-rule="evenodd" clip-rule="evenodd" d="M28.2888 44.9586C27.9088 45.0643 27.4843 44.9677 27.1855 44.6689L25.3312 42.8145C24.8896 42.373 24.8896 41.6571 25.3312 41.2155C25.7727 40.774 26.4886 40.774 26.9301 41.2155L27.996 42.2815L30.9464 39.3312C31.3879 38.8896 32.1038 38.8896 32.5453 39.3312C32.9869 39.7727 32.9869 40.4886 32.5453 40.9301L28.8145 44.661C28.6639 44.8115 28.4814 44.9108 28.2888 44.9586Z" fill="#ffc357"/>
<path fill-rule="evenodd" clip-rule="evenodd" d="M28.2888 52.9587C27.9088 53.0643 27.4843 52.9677 27.1855 52.6689L25.3312 50.8145C24.8896 50.373 24.8896 49.6571 25.3312 49.2156C25.7727 48.774 26.4886 48.774 26.9301 49.2156L27.996 50.2815L30.9464 47.3312C31.3879 46.8896 32.1038 46.8896 32.5453 47.3312C32.9869 47.7727 32.9869 48.4886 32.5453 48.9301L28.8145 52.661C28.6639 52.8116 28.4814 52.9108 28.2888 52.9587Z" fill="#ffc357"/>
<rect x="35" y="56" width="20" height="4" rx="2" fill="#ffc357"/>
<rect x="35" y="40" width="20" height="4" rx="2" fill="#ffc357"/>
</svg>
