<svg width="80" height="80" viewBox="0 0 80 80" fill="none" xmlns="http://www.w3.org/2000/svg">
<path d="M45.286 6.66666C46.8575 6.66666 48.3719 7.22161 49.5672 8.22304L50 8.61929L64.714 23.3333C65.8254 24.4446 66.5038 25.9079 66.6408 27.4612L66.6666 28.0474V66.6667C66.6666 70.1813 63.9471 73.0605 60.4975 73.315L60 73.3333H20C16.4854 73.3333 13.6061 70.6138 13.3516 67.1642L13.3333 66.6667V13.3333C13.3333 9.81878 16.0529 6.93944 19.5024 6.68494L20 6.66666H45.286ZM40 13.3333H20V66.6667H60V33.3333H45C42.2386 33.3333 40 31.0948 40 28.3333V13.3333ZM46.6666 14.714V26.6667H58.6193L46.6666 14.714Z" fill="#ffc357"/>
<rect x="35" y="48" width="20" height="4" rx="2" fill="#ffc357"/>
<path fill-rule="evenodd" clip-rule="evenodd" d="M25.3316 43.0674C24.8895 43.5095 24.8895 44.2263 25.3316 44.6684C25.7737 45.1105 26.4905 45.1105 26.9326 44.6684L28 43.6011L29.0674 44.6684C29.5095 45.1105 30.2263 45.1105 30.6684 44.6684C31.1105 44.2263 31.1105 43.5095 30.6684 43.0674L29.601 42L30.6684 40.9326C31.1105 40.4905 31.1105 39.7737 30.6684 39.3316C30.2263 38.8895 29.5095 38.8895 29.0674 39.3316L28 40.399L26.9326 39.3316C26.4905 38.8895 25.7737 38.8895 25.3316 39.3316C24.8895 39.7737 24.8895 40.4905 25.3316 40.9327L26.3989 42L25.3316 43.0674Z" fill="#ffc357"/>
<path fill-rule="evenodd" clip-rule="evenodd" d="M25.3316 59.0674C24.8895 59.5095 24.8895 60.2263 25.3316 60.6684C25.7737 61.1105 26.4905 61.1105 26.9326 60.6684L28 59.6011L29.0674 60.6684C29.5095 61.1105 30.2263 61.1105 30.6684 60.6684C31.1105 60.2263 31.1105 59.5095 30.6684 59.0674L29.601 58L30.6684 56.9326C31.1105 56.4905 31.1105 55.7737 30.6684 55.3316C30.2263 54.8895 29.5095 54.8895 29.0674 55.3316L28 56.399L26.9326 55.3316C26.4905 54.8895 25.7737 54.8895 25.3316 55.3316C24.8895 55.7737 24.8895 56.4905 25.3316 56.9327L26.3989 58L25.3316 59.0674Z" fill="#ffc357"/>
<path fill-rule="evenodd" clip-rule="evenodd" d="M27.2888 52.9586C26.9088 53.0643 26.4843 52.9677 26.1855 52.6689L24.3312 50.8145C23.8896 50.373 23.8896 49.6571 24.3312 49.2155C24.7727 48.774 25.4886 48.774 25.9301 49.2155L26.996 50.2815L29.9464 47.3312C30.3879 46.8896 31.1038 46.8896 31.5453 47.3312C31.9869 47.7727 31.9869 48.4886 31.5453 48.9301L27.8145 52.661C27.6639 52.8115 27.4814 52.9108 27.2888 52.9586Z" fill="#ffc357"/>
<rect x="35" y="56" width="20" height="4" rx="2" fill="#ffc357"/>
<rect x="35" y="40" width="20" height="4" rx="2" fill="#ffc357"/>
</svg>
