<svg width="80" height="80" viewBox="0 0 80 80" fill="none" xmlns="http://www.w3.org/2000/svg">
<path d="M45.286 6.66666C46.8576 6.66666 48.372 7.22161 49.5673 8.22304L50 8.61929L64.714 23.3333C65.8254 24.4446 66.5039 25.9079 66.6409 27.4612L66.6667 28.0474V66.6667C66.6667 70.1813 63.9472 73.0605 60.4976 73.315L60 73.3333H20C16.4855 73.3333 13.6062 70.6138 13.3517 67.1642L13.3334 66.6667V13.3333C13.3334 9.81878 16.053 6.93944 19.5025 6.68494L20 6.66666H45.286ZM40 13.3333H20V66.6667H60V33.3333H45C42.2387 33.3333 40 31.0948 40 28.3333V13.3333ZM46.6667 14.714V26.6667H58.6194L46.6667 14.714Z" fill="#ffc357"/>
<path fill-rule="evenodd" clip-rule="evenodd" d="M43 42L43 58H39C38.4477 58 38 58.4477 38 59C38 59.5523 38.4477 60 39 60H44H49C49.5523 60 50 59.5523 50 59C50 58.4477 49.5523 58 49 58H45L45 42H49C49.5523 42 50 41.5523 50 41C50 40.4477 49.5523 40 49 40H44H39C38.4477 40 38 40.4477 38 41C38 41.5523 38.4477 42 39 42H43ZM36 46L36 55C36 55.5523 35.5523 56 35 56C34.4477 56 34 55.5523 34 55L34 46L31 46C30.4477 46 30 45.5523 30 45C30 44.4477 30.4477 44 31 44H39C39.5523 44 40 44.4477 40 45C40 45.5523 39.5523 46 39 46H36Z" fill="#ffc357"/>
</svg>
