<svg xmlns="http://www.w3.org/2000/svg" width="18" height="18" viewBox="0 0 18 18" fill="none">
<path fill-rule="evenodd" clip-rule="evenodd" d="M1.10683 9.18466C1.10683 9.73694 1.55454 10.1847 2.10683 10.1847L7.9158 10.1847L7.9158 15.9939C7.9158 16.5462 8.36352 16.9939 8.9158 16.9939H9.18552C9.7378 16.9939 10.1855 16.5462 10.1855 15.9939L10.1855 10.1847L15.9949 10.1847C16.5471 10.1847 16.9949 9.73694 16.9949 9.18465L16.9949 8.91494C16.9949 8.36265 16.5471 7.91494 15.9949 7.91494L10.1855 7.91494L10.1855 2.10583C10.1855 1.55355 9.7378 1.10583 9.18552 1.10583L8.9158 1.10583C8.36352 1.10583 7.9158 1.55355 7.9158 2.10584L7.9158 7.91494L2.10683 7.91494C1.55454 7.91494 1.10683 8.36265 1.10683 8.91494L1.10683 9.18466Z" fill="white"/>
</svg>