<svg width="24" height="24" viewBox="0 0 24 24" fill="none" xmlns="http://www.w3.org/2000/svg">
<path d="M5.4 7.52632H2.87782L3.03891 7.68818C3.2537 7.90399 3.2537 8.2539 3.03891 8.46972C2.82412 8.68553 2.47588 8.68553 2.26109 8.46972L1.16109 7.36445C0.946303 7.14864 0.946303 6.79873 1.16109 6.58291L2.26109 5.47765C2.47588 5.26184 2.82412 5.26184 3.03891 5.47765C3.2537 5.69347 3.2537 6.04337 3.03891 6.25919L2.87782 6.42105H5.4V3.8868L5.23891 4.04866C5.02412 4.26448 4.67588 4.26448 4.46109 4.04866C4.2463 3.83285 4.2463 3.48294 4.46109 3.26713L5.56109 2.16186C5.77588 1.94605 6.12412 1.94605 6.33891 2.16186L7.43891 3.26713C7.6537 3.48294 7.6537 3.83285 7.43891 4.04866C7.22412 4.26448 6.87588 4.26448 6.66109 4.04866L6.5 3.8868V6.42105H9.02218L8.86109 6.25919C8.6463 6.04337 8.6463 5.69347 8.86109 5.47765C9.07588 5.26184 9.42412 5.26184 9.63891 5.47765L10.7389 6.58291C10.9537 6.79873 10.9537 7.14864 10.7389 7.36445L9.63891 8.46972C9.42412 8.68553 9.07588 8.68553 8.86109 8.46972C8.6463 8.2539 8.6463 7.90399 8.86109 7.68818L9.02218 7.52632H6.5V10.0606L6.66109 9.8987C6.87588 9.68289 7.22412 9.68289 7.43891 9.8987C7.6537 10.1145 7.6537 10.4644 7.43891 10.6802L6.33891 11.7855C6.12412 12.0013 5.77588 12.0013 5.56109 11.7855L4.46109 10.6802C4.2463 10.4644 4.2463 10.1145 4.46109 9.8987C4.67588 9.68289 5.02412 9.68289 5.23891 9.8987L5.4 10.0606V7.52632ZM14.2 10.2895V13.1051C14.2 13.4708 14.0724 13.825 13.8394 14.1059C13.2892 14.7693 12.3081 14.8589 11.6479 14.3061L10.6317 13.4552C10.321 13.1951 9.9294 13.0526 9.525 13.0526C9.232 13.0526 8.96491 13.2213 8.83785 13.4866L8.79859 13.5686C8.64993 13.879 8.69495 14.248 8.91384 14.5131L13.7687 20.3932C14.554 21.3444 15.72 21.8947 16.95 21.8947C19.6838 21.8947 21.9 19.6679 21.9 16.9211V12.5C21.9 12.1948 21.6538 11.9474 21.35 11.9474C21.0462 11.9474 20.8 12.1948 20.8 12.5V13.6053C20.8 13.9105 20.5538 14.1579 20.25 14.1579C19.9462 14.1579 19.7 13.9105 19.7 13.6053V11.3947C19.7 11.0895 19.4538 10.8421 19.15 10.8421C18.8462 10.8421 18.6 11.0895 18.6 11.3947V13.6053C18.6 13.9105 18.3538 14.1579 18.05 14.1579C17.7462 14.1579 17.5 13.9105 17.5 13.6053V10.2895C17.5 9.98426 17.2538 9.73684 16.95 9.73684C16.6462 9.73684 16.4 9.98426 16.4 10.2895V13.6053C16.4 13.9105 16.1538 14.1579 15.85 14.1579C15.5462 14.1579 15.3 13.9105 15.3 13.6053V5.86842C15.3 5.56321 15.0538 5.31579 14.75 5.31579C14.4462 5.31579 14.2 5.56321 14.2 5.86842V10.2895ZM13.1 10.2895V5.86842C13.1 4.95279 13.8387 4.21053 14.75 4.21053C15.6613 4.21053 16.4 4.95279 16.4 5.86842V8.72592C16.572 8.66482 16.7572 8.63158 16.95 8.63158C17.7109 8.63158 18.3515 9.1491 18.5422 9.85294C18.7303 9.77802 18.9354 9.73684 19.15 9.73684C19.9109 9.73684 20.5515 10.2544 20.7422 10.9582C20.9303 10.8833 21.1354 10.8421 21.35 10.8421C22.2613 10.8421 23 11.5844 23 12.5V16.9211C23 20.2784 20.2913 23 16.95 23C15.3927 23 13.9163 22.3032 12.922 21.0989L8.06723 15.2188C7.57373 14.621 7.47222 13.7891 7.80739 13.0893L7.84665 13.0073C8.15698 12.3594 8.80935 11.9474 9.525 11.9474C10.1867 11.9474 10.8275 12.1805 11.3359 12.6061L12.3521 13.457C12.5456 13.619 12.8331 13.5928 12.9943 13.3984C13.0626 13.316 13.1 13.2122 13.1 13.1051V10.2895Z" fill="#B8FD8E"/>
</svg>
