<svg width="40" height="40" viewBox="0 0 40 40" fill="none" xmlns="http://www.w3.org/2000/svg">
<mask id="mask0_6_1668" style="mask-type:alpha" maskUnits="userSpaceOnUse" x="3" y="3" width="34" height="34">
<path d="M3.60005 5.99998C3.60005 4.67449 4.67457 3.59998 6.00005 3.59998H11.6001C12.9255 3.59998 14.0001 4.67449 14.0001 5.99998V11.6C14.0001 12.9255 12.9255 14 11.6001 14H6.00005C4.67457 14 3.60005 12.9255 3.60005 11.6V5.99998Z" fill="#52AEFF"/>
<g opacity="0.8">
<path d="M14.8001 5.99998C14.8001 4.67449 15.8747 3.59998 17.2001 3.59998H22.8001C24.1256 3.59998 25.2001 4.67449 25.2001 5.99998V11.6C25.2001 12.9255 24.1256 14 22.8001 14H17.2001C15.8747 14 14.8001 12.9255 14.8001 11.6V5.99998Z" fill="#52AEFF"/>
</g>
<g opacity="0.6">
<path d="M25.9999 5.99998C25.9999 4.67449 27.0745 3.59998 28.3999 3.59998H33.9999C35.3254 3.59998 36.3999 4.67449 36.3999 5.99998V11.6C36.3999 12.9255 35.3254 14 33.9999 14H28.3999C27.0745 14 25.9999 12.9255 25.9999 11.6V5.99998Z" fill="#52AEFF"/>
</g>
<g opacity="0.8">
<path d="M3.6001 17.1999C3.6001 15.8744 4.67461 14.7999 6.0001 14.7999H11.6001C12.9256 14.7999 14.0001 15.8744 14.0001 17.1999V22.7999C14.0001 24.1254 12.9256 25.1999 11.6001 25.1999H6.0001C4.67461 25.1999 3.6001 24.1254 3.6001 22.7999V17.1999Z" fill="#52AEFF"/>
</g>
<g opacity="0.6">
<path d="M15.2001 17.6C15.2001 16.2745 16.2747 15.2 17.6001 15.2H22.4001C23.7256 15.2 24.8001 16.2745 24.8001 17.6V22.4C24.8001 23.7254 23.7256 24.8 22.4001 24.8H17.6001C16.2747 24.8 15.2001 23.7254 15.2001 22.4V17.6Z" fill="#52AEFF"/>
</g>
<g opacity="0.4">
<path d="M26.3999 17.6C26.3999 16.2745 27.4744 15.2 28.7999 15.2H33.5999C34.9254 15.2 35.9999 16.2745 35.9999 17.6V22.4C35.9999 23.7254 34.9254 24.8 33.5999 24.8H28.7999C27.4744 24.8 26.3999 23.7254 26.3999 22.4V17.6Z" fill="#52AEFF"/>
</g>
<g opacity="0.6">
<path d="M3.6001 28.4C3.6001 27.0745 4.67461 26 6.0001 26H11.6001C12.9256 26 14.0001 27.0745 14.0001 28.4V34C14.0001 35.3255 12.9256 36.4 11.6001 36.4H6.0001C4.67461 36.4 3.6001 35.3255 3.6001 34V28.4Z" fill="#52AEFF"/>
</g>
<g opacity="0.4">
<path d="M15.2001 28.8C15.2001 27.4745 16.2747 26.4 17.6001 26.4H22.4001C23.7256 26.4 24.8001 27.4745 24.8001 28.8V33.6C24.8001 34.9255 23.7256 36 22.4001 36H17.6001C16.2747 36 15.2001 34.9255 15.2001 33.6V28.8Z" fill="#52AEFF"/>
</g>
<g opacity="0.3">
<path d="M26.9176 29.3176C26.9176 27.9921 27.9921 26.9176 29.3176 26.9176H33.0823C34.4078 26.9176 35.4823 27.9921 35.4823 29.3176V33.0823C35.4823 34.4078 34.4078 35.4823 33.0823 35.4823H29.3176C27.9921 35.4823 26.9176 34.4078 26.9176 33.0823V29.3176Z" fill="#52AEFF"/>
</g>
</mask>
<g mask="url(#mask0_6_1668)">
<rect width="40" height="40" fill="url(#paint0_linear_6_1668)"/>
</g>
<defs>
<linearGradient id="paint0_linear_6_1668" x1="20" y1="0" x2="20" y2="40" gradientUnits="userSpaceOnUse">
<stop stop-color="#203BC7"/>
<stop offset="0.333333" stop-color="#A820D6"/>
<stop offset="0.666667" stop-color="#E5249A"/>
<stop offset="1" stop-color="#E38025"/>
</linearGradient>
</defs>
</svg>
