<svg width="18" height="18" viewBox="0 0 18 18" fill="none" xmlns="http://www.w3.org/2000/svg">
<path d="M13.2379 4.76274C12.0154 3.54024 10.2829 2.83524 8.37794 3.03024C5.62544 3.30774 3.36044 5.54274 3.05294 8.29524C2.64044 11.9327 5.45294 15.0002 9.00044 15.0002C11.3929 15.0002 13.4479 13.5977 14.4079 11.5802C14.6479 11.0777 14.2879 10.5002 13.7329 10.5002C13.4554 10.5002 13.1929 10.6502 13.0729 10.8977C12.2254 12.7202 10.1929 13.8752 7.97294 13.3802C6.30794 13.0127 4.96544 11.6552 4.61294 9.99024C3.98294 7.08024 6.19544 4.50024 9.00044 4.50024C10.2454 4.50024 11.3554 5.01774 12.1654 5.83524L11.0329 6.96774C10.5604 7.44024 10.8904 8.25024 11.5579 8.25024H14.2504C14.6629 8.25024 15.0004 7.91274 15.0004 7.50024V4.80774C15.0004 4.14024 14.1904 3.80274 13.7179 4.27524L13.2379 4.76274Z" fill="white"/>
</svg>
