<svg width="35" height="35" viewBox="0 0 35 35" fill="none" xmlns="http://www.w3.org/2000/svg">
<path d="M29.4512 9.97674C28.2332 8.80552 26.314 8.31152 23.5607 8.50405L23.2415 8.52637L23.2378 8.47317C23.0816 6.23863 22.8881 3.47205 17.887 3.82176L15.8652 3.96313C10.8641 4.31285 11.0576 7.07943 11.2138 9.31397L11.2176 9.36717L10.8983 9.38949C8.14506 9.58202 6.30005 10.3392 5.27021 11.6676C4.05666 13.2361 4.23329 15.1886 4.46023 16.5226L4.48005 16.6148L4.65952 17.7611C4.68343 17.9137 4.77651 18.0468 4.91173 18.1215C5.32666 18.351 5.77276 18.5958 6.19622 18.7937C6.3908 18.9004 6.59776 18.9929 6.80471 19.0853C8.36537 19.8049 10.0203 20.3441 11.7013 20.681C11.9821 24.1231 14.9972 26.7191 18.4554 26.4773C21.9402 26.2336 24.5752 23.2024 24.3315 19.7176L24.3278 19.6644C25.9684 19.0418 27.5285 18.2243 28.9701 17.2413C29.0471 17.1959 29.0975 17.1522 29.1612 17.1077C29.6868 16.7725 30.227 16.3404 30.7145 15.9398C30.8246 15.8493 30.8905 15.716 30.8959 15.5735L30.9299 14.6851C30.9376 14.6043 30.9329 14.5378 30.9397 14.4438C30.9531 13.1063 30.7982 11.2726 29.4512 9.97674ZM13.1159 9.18097C12.9577 6.91982 12.8982 6.06857 15.9973 5.85186L18.019 5.71048C21.1181 5.49377 21.1777 6.34503 21.3358 8.60617L21.3395 8.65938L13.1196 9.23417L13.1159 9.18097ZM18.3159 24.4822C16.1212 24.6356 14.1837 23.1138 13.7689 21.0042C13.7302 20.8332 13.7038 20.6479 13.6908 20.4617C13.5243 18.0808 15.3305 16.0031 17.7113 15.8366C20.0922 15.6701 22.1699 17.4763 22.3364 19.8571C22.3475 20.0167 22.3445 20.164 22.3414 20.3112L22.3423 20.3245C22.2545 22.5093 20.5371 24.3268 18.3159 24.4822Z" fill="#292D32"/>
<path d="M17.4442 22.9126C17.1915 22.9302 16.9322 22.8548 16.7188 22.6692L15.3108 21.4578C14.8981 21.0991 14.8535 20.4606 15.2122 20.0479C15.571 19.6352 16.2094 19.5906 16.6221 19.9493L17.3052 20.5431L19.309 18.4249C19.682 18.0245 20.3223 18.0065 20.7226 18.3795C21.1229 18.7525 21.141 19.3928 20.768 19.7931L18.1182 22.6115C17.9165 22.786 17.6836 22.8958 17.4442 22.9126Z" fill="#292D32"/>
<path d="M30.0139 18.9612C30.3318 18.7543 30.7796 18.9906 30.7715 19.3699L30.66 24.5698C30.5667 27.2495 29.6658 30.0391 23.8134 30.4484L13.6782 31.1571C7.82578 31.5663 6.54537 28.9292 6.09427 26.301L5.28979 21.4074C5.22733 21.0275 5.61828 20.7405 5.9703 20.8964C7.04776 21.3958 8.16047 21.8259 9.29235 22.1478C9.7149 22.2652 10.0317 22.5906 10.1812 23.0079C11.4206 26.3963 14.8189 28.7383 18.5963 28.4742C22.4403 28.2054 25.5024 25.3582 26.1957 21.7009C26.2723 21.2678 26.5408 20.9015 26.9419 20.7131C28.0285 20.196 29.0563 19.6029 30.0139 18.9612Z" fill="#292D32"/>
</svg>
