<svg width="35" height="35" viewBox="0 0 35 35" fill="none" xmlns="http://www.w3.org/2000/svg">
<path d="M23.8466 4.25729L12.7005 3.47788C7.85894 3.13933 4.77083 5.82379 4.43228 10.6653L3.65379 21.7981C3.31431 26.6529 5.99877 29.741 10.8403 30.0796L21.9731 30.8581C26.8146 31.1966 29.9027 28.5122 30.2413 23.6707L31.0207 12.5245C31.3725 7.68396 28.6881 4.59584 23.8466 4.25729ZM10.9589 24.942C10.9208 25.4874 10.437 25.908 9.89163 25.8698C9.34629 25.8317 8.92569 25.3478 8.96382 24.8025L9.15635 22.0492C9.19448 21.5039 9.67833 21.0833 10.2237 21.1214C10.769 21.1596 11.1896 21.6434 11.1515 22.1887L10.9589 24.942ZM17.769 25.4182C17.7309 25.9636 17.247 26.3842 16.7017 26.346C16.1563 26.3079 15.7357 25.824 15.7739 25.2787L16.1598 19.7589C16.198 19.2135 16.6818 18.7929 17.2272 18.831C17.7725 18.8692 18.1931 19.353 18.155 19.8984L17.769 25.4182ZM24.579 25.8944C24.5409 26.4398 24.057 26.8604 23.5117 26.8222C22.9664 26.7841 22.5458 26.3002 22.5839 25.7549L23.1624 17.4818C23.2005 16.9364 23.6844 16.5158 24.2297 16.554C24.7751 16.5921 25.1957 17.076 25.1575 17.6213L24.579 25.8944ZM25.4514 13.4182C25.4133 13.9636 24.9295 14.3842 24.3841 14.346C23.8388 14.3079 23.4182 13.824 23.4563 13.2787L23.5465 11.9885C19.9111 15.2362 15.4961 17.4001 10.6649 18.2519C10.5832 18.2729 10.5034 18.2673 10.4236 18.2617C9.97141 18.2301 9.59377 17.8963 9.50569 17.4357C9.40988 16.8944 9.76724 16.3713 10.3219 16.2765C14.8824 15.4726 19.0373 13.3974 22.4354 10.2936L20.7728 10.1773C20.2275 10.1392 19.8068 9.65531 19.845 9.10998C19.8831 8.56464 20.367 8.14404 20.9123 8.18217L24.8095 8.45468C24.8627 8.45841 24.9007 8.4878 24.9539 8.49152C25.0195 8.50947 25.086 8.51412 25.1506 8.54537C25.2153 8.57662 25.2657 8.62025 25.3294 8.6648C25.3674 8.69419 25.4064 8.71028 25.4445 8.73967C25.4568 8.75391 25.4559 8.76721 25.4692 8.76814C25.5187 8.82506 25.5549 8.88105 25.591 8.93705C25.6272 8.99304 25.6643 9.03573 25.6739 9.08987C25.6968 9.14493 25.6931 9.19813 25.7017 9.26557C25.7104 9.333 25.7323 9.40137 25.7268 9.48117C25.7258 9.49447 25.7382 9.5087 25.7373 9.52201L25.4647 13.4192L25.4514 13.4182Z" fill="#1C1E23"/>
</svg>
