<svg width="36" height="35" viewBox="0 0 36 35" fill="none" xmlns="http://www.w3.org/2000/svg">
<path d="M32.1971 6.45631L5.59536 4.59613C5.05002 4.558 4.62941 4.07415 4.66755 3.52881C4.70568 2.98348 5.18953 2.56287 5.73487 2.60101L32.3366 4.46118C32.8819 4.49931 33.3025 4.98316 33.2644 5.5285C33.2263 6.07383 32.7424 6.49444 32.1971 6.45631Z" fill="#292D32"/>
<path d="M23.2857 32.0161C23.0886 32.3498 22.7155 32.5242 22.3564 32.4991C22.2101 32.4889 22.0533 32.4378 21.9249 32.362L17.2137 29.5866L12.1621 31.6794C12.0244 31.7366 11.862 31.7653 11.7157 31.7551C11.3566 31.73 11.0114 31.5053 10.8627 31.1474C10.6453 30.6243 10.8867 30.0397 11.4088 29.8356L16.337 27.7878L16.5733 24.4093L18.5684 24.5489L18.3322 27.9273L22.9274 30.6411C23.4161 30.9159 23.5737 31.5284 23.2857 32.0161Z" fill="#292D32"/>
<path d="M6.99609 3.69141L5.87069 19.7854C5.69397 22.3126 6.93105 23.7357 9.45821 23.9124L25.6853 25.0471C28.2124 25.2238 29.6355 23.9868 29.8122 21.4596L30.9376 5.36556L6.99609 3.69141ZM24.9787 13.7436L20.5443 16.9488C20.1363 17.241 19.6348 17.3396 19.1749 17.2273C18.7016 17.114 18.3098 16.7925 18.0868 16.3492L16.853 13.9239L12.7289 16.8968C12.5315 17.0434 12.3008 17.0941 12.0746 17.0783C11.7953 17.0587 11.5111 16.9186 11.3283 16.6652C10.9989 16.2145 11.1092 15.594 11.5599 15.2646L15.9943 12.0595C16.4023 11.7672 16.9038 11.6686 17.3637 11.781C17.837 11.8943 18.2288 12.2157 18.4518 12.659L19.6856 15.0843L23.8097 12.1114C24.2604 11.7821 24.8809 11.8923 25.2103 12.343C25.5263 12.7928 25.4294 13.4143 24.9787 13.7436Z" fill="#292D32"/>
</svg>
