<svg width="35" height="35" viewBox="0 0 35 35" fill="none" xmlns="http://www.w3.org/2000/svg">
<path d="M10.9234 20.6555L7.37208 20.9038C5.90899 21.0061 4.79562 22.2869 4.89793 23.75L5.36297 30.4004C5.41413 31.132 6.05452 31.6887 6.78607 31.6375L11.6675 31.2962C12.399 31.245 12.9557 30.6046 12.9046 29.8731L12.3465 21.8926C12.2954 21.161 11.655 20.6043 10.9234 20.6555Z" fill="#292D32"/>
<path d="M19.4097 14.7151L15.8584 14.9634C14.3953 15.0657 13.2819 16.3465 13.3843 17.8096L14.2213 29.7804C14.2725 30.5119 14.9129 31.0686 15.6444 31.0174L21.8559 30.5831C22.5875 30.5319 23.1442 29.8915 23.093 29.16L22.2559 17.1892C22.1536 15.7261 20.8861 14.6118 19.4097 14.7151Z" fill="#292D32"/>
<path d="M28.9332 23.4057L25.3818 23.6541C24.6503 23.7052 24.0936 24.3456 24.1448 25.0772L24.4238 29.0674C24.4749 29.799 25.1153 30.3556 25.8469 30.3045L30.7283 29.9631C31.4598 29.912 32.0165 29.2716 31.9654 28.5401L31.7794 25.8799C31.6771 24.4168 30.3963 23.3034 28.9332 23.4057Z" fill="#292D32"/>
<path d="M21.1655 7.70926C21.549 7.2681 21.6742 6.76481 21.5114 6.34848C21.3487 5.93215 20.9149 5.65507 20.3232 5.60289L19.0314 5.47936C18.9782 5.48308 18.852 5.39834 18.8217 5.347L18.0182 3.98641C17.4108 2.94624 16.2004 3.03088 15.7437 4.14545L15.1374 5.60464C15.1278 5.65877 15.0146 5.76025 14.9614 5.76397L13.6994 6.06607C13.1206 6.2001 12.743 6.53392 12.6265 6.96978C12.5232 7.40471 12.7172 7.88568 13.1584 8.26917L14.2124 9.19791C14.2684 9.23409 14.3195 9.39091 14.3099 9.44504L14.1161 10.6883C13.9675 11.6209 14.3422 12.009 14.5794 12.1528C14.8167 12.2966 15.3237 12.475 16.1016 11.9395L17.2494 11.1508C17.2998 11.1072 17.4727 11.0951 17.5287 11.1313L18.7618 11.7535C19.15 11.9535 19.4606 11.9986 19.7 11.9819C19.9793 11.9624 20.1714 11.842 20.2855 11.7538C20.5005 11.5784 20.8175 11.1419 20.5405 10.239L20.1756 9.03488C20.1576 8.9693 20.1873 8.8202 20.2377 8.77658L21.1655 7.70926Z" fill="#292D32"/>
</svg>
