<svg width="24" height="24" viewBox="0 0 24 24" fill="none" xmlns="http://www.w3.org/2000/svg">
<path fill-rule="evenodd" clip-rule="evenodd" d="M4.40012 10.9486C2.51989 9.15853 2.75465 6.10699 5.10225 4.63123C6.80989 3.55757 9.10389 3.88008 10.551 5.25788L11.2221 5.89676C11.6412 6.29581 12.3198 6.29581 12.7379 5.89676C13.157 5.49873 13.157 4.85269 12.7379 4.45365L12.1708 3.91376C9.68061 1.54294 5.58999 1.30208 3.02585 3.60044C0.372735 5.97942 0.325572 9.95664 2.88435 12.3918L3.64223 13.1133C4.06029 13.5124 4.73992 13.5124 5.15799 13.1133C5.57713 12.7153 5.57713 12.0692 5.15799 11.6702L4.40012 10.9486ZM19.9768 11.3457L19.4301 10.8252C19.011 10.4261 18.3324 10.4261 17.9144 10.8252C17.4952 11.2232 17.4952 11.8692 17.9144 12.2683L18.5854 12.9072C20.0326 14.285 20.3703 16.469 19.2436 18.0948C17.6936 20.3299 14.4873 20.5524 12.6082 18.7633L11.8503 18.0417C11.4311 17.6427 10.7526 17.6427 10.3345 18.0417C9.91538 18.4397 9.91538 19.0858 10.3345 19.4848L11.0924 20.2064C13.6437 22.6354 17.8061 22.5976 20.3059 20.0911C22.7425 17.6488 22.4788 13.7277 19.9768 11.3457ZM15.6397 17.3202L5.91586 8.06244C5.4978 7.66339 5.4978 7.01737 5.91586 6.61832C6.335 6.22029 7.01356 6.22029 7.43163 6.61832L17.1565 15.876C17.5746 16.2751 17.5746 16.9211 17.1565 17.3202C16.7374 17.7182 16.0588 17.7182 15.6397 17.3202Z" fill="#B8FD8E"/>
</svg>
