<svg width="18" height="18" viewBox="0 0 18 18" fill="none" xmlns="http://www.w3.org/2000/svg">
<path fill-rule="evenodd" clip-rule="evenodd" d="M3.4837 14.7182C3.87423 15.1087 4.50739 15.1087 4.89792 14.7182L9.00548 10.6106L13.1132 14.7183C13.5037 15.1088 14.1369 15.1088 14.5274 14.7183L14.7182 14.5276C15.1087 14.1371 15.1087 13.5039 14.7182 13.1134L10.6104 9.00565L14.7182 4.89783C15.1088 4.5073 15.1088 3.87414 14.7182 3.48361L14.5275 3.29289C14.137 2.90237 13.5038 2.90237 13.1133 3.29289L9.00548 7.40072L4.89783 3.29306C4.5073 2.90254 3.87414 2.90254 3.48361 3.29306L3.29289 3.48378C2.90237 3.87431 2.90237 4.50747 3.29289 4.898L7.40055 9.00565L3.29298 13.1132C2.90246 13.5037 2.90246 14.1369 3.29298 14.5274L3.4837 14.7182Z" fill="black"/>
</svg>
