<svg width="32" height="32" viewBox="0 0 32 32" fill="none" xmlns="http://www.w3.org/2000/svg">
<g id="mdi:dolphin">
<path id="Vector" d="M26.6663 9.33246C26.6663 9.33246 26.6663 3.99913 19.9997 3.99913C17.9597 3.99913 16.1997 4.25246 14.6663 4.66579C13.9997 4.07913 9.67968 0.411126 5.33301 4.75913L8.74634 8.17246C3.33301 14.0391 5.33301 23.9991 5.33301 23.9991C5.33301 23.9991 1.33301 23.9991 1.33301 29.3325L6.66634 27.9991L11.9997 29.3325C11.9997 23.9991 7.99967 23.9991 7.99967 23.9991C7.99967 23.9991 9.13301 16.3191 17.333 14.9058V18.6658C19.9997 18.6658 20.9063 16.2525 21.1863 14.6658H23.9997C29.333 14.6658 30.6663 13.3325 30.6663 11.9991C30.6663 10.6658 27.9997 9.33246 26.6663 9.33246ZM23.9997 10.6658C23.2663 10.6658 22.6663 10.0658 22.6663 9.33246C22.6663 8.59913 23.2663 7.99913 23.9997 7.99913C24.733 7.99913 25.333 8.59913 25.333 9.33246C25.333 10.0658 24.733 10.6658 23.9997 10.6658Z" fill="#B8FD8E"/>
</g>
</svg>
